<svg width="19" height="20" viewBox="0 0 19 20" fill="none" xmlns="http://www.w3.org/2000/svg">
<path d="M2.41012 17.8353C1.91141 18.3366 3.86011 14.2579 4.39951 13.7039L16.1567 1.62913C16.6961 1.07516 16.8161 1.7576 17.3702 2.29679C17.9244 2.83598 18.7029 3.02775 18.1635 3.58171L6.40635 15.6565C5.86695 16.2104 2.07793 18.1692 2.41012 17.8353Z" fill="#94ADCF"/>
<path d="M15.4149 4.19212C15.3946 4.20175 14.4289 3.27755 14.4449 3.261L14.7924 2.90022C14.8083 2.88367 15.2231 3.29967 15.8053 3.86001C16.3874 4.42035 16.9165 4.91284 16.9005 4.9294L16.553 5.29017C16.537 5.30672 15.4014 4.19854 15.4149 4.19212Z" fill="#38404B"/>
</svg>
