<svg width="28" height="29" viewBox="0 0 28 29" fill="none" xmlns="http://www.w3.org/2000/svg">
<path d="M20.548 7.50904C21.0881 8.04075 21.0951 8.90978 20.5636 9.45009L9.01627 21.1888C8.48478 21.7291 7.61608 21.736 7.07599 21.2043V21.2043C6.5359 20.6726 6.52893 19.8036 7.06042 19.2633L18.6078 7.5246C19.1392 6.98429 20.0079 6.97733 20.548 7.50904V7.50904Z" fill="#94ADCF"/>
<path d="M6.80036 7.53596C7.34098 6.98318 8.22719 6.97348 8.77977 7.5143L20.8243 19.3025C21.3768 19.8433 21.3866 20.7298 20.8459 21.2826V21.2826C20.3053 21.8354 19.4191 21.8451 18.8665 21.3043L6.82204 9.51611C6.26945 8.97529 6.25975 8.08875 6.80036 7.53596V7.53596Z" fill="#94ADCF"/>
</svg>
